<svg width="325" height="196.99" xmlns="http://www.w3.org/2000/svg" xmlns:xlink="http://www.w3.org/1999/xlink">
 <defs>
  <style>.cls-1,.cls-10,.cls-12{fill:none;}.cls-2{fill:#e9551d;}.cls-3{fill:#ef7c10;}.cls-4{fill:#f6a307;}.cls-5{fill:#b91d1b;}.cls-6{fill:#fff;}.cls-7{fill:#020203;}.cls-8{fill:#e22022;}.cls-9{clip-path:url(#clip-path);}.cls-10{stroke:#e22022;}.cls-10,.cls-12{stroke-miterlimit:10;stroke-width:0.03px;}.cls-11{fill:#0b6fb7;}.cls-12{stroke:#0b6fb7;}</style>
  <clipPath id="clip-path">
   <rect id="svg_1" height="187.61" width="100.64" y="4.68" x="205.36" class="cls-1"/>
  </clipPath>
  <linearGradient id="svg_167" y2="NaN" x2="75.7828966%" y1="NaN" x1="6.89015912%">
   <stop offset="0%" stop-color="#7ACCEC"/>
   <stop offset="100%" stop-color="#3FB7ED"/>
  </linearGradient>
  <linearGradient id="svg_168" y2="NaN" x2="87.8125992%" y1="NaN" x1="16.6738062%">
   <stop offset="0%" stop-color="#97D6EE"/>
   <stop offset="70.329303%" stop-color="#55C1EA"/>
   <stop offset="100%" stop-color="#55C1EA"/>
  </linearGradient>
 </defs>
 <g>
  <title>background</title>
  <rect fill="none" id="canvas_background" height="198.99" width="327" y="-1" x="-1"/>
 </g>
 <g>
  <title>Layer 1</title>
  <path id="svg_2" d="m132.43,25.03a67.06,67.06 0 0 1 11.84,37a62.35,62.35 0 0 0 -16.46,-18.52a72.4,72.4 0 0 1 8.56,36.33a32.55,32.55 0 0 0 -13.81,-19.81c4.3,10.75 8.43,23.54 2.07,33.22a93.32,93.32 0 0 0 -6,-15a81.24,81.24 0 0 1 -10.92,46a59.57,59.57 0 0 0 -8.2,-29.47a126.42,126.42 0 0 1 -5.71,38.43a101.78,101.78 0 0 0 -13.14,-33.18a132.76,132.76 0 0 1 -9.84,28.19a125.3,125.3 0 0 0 -9.87,-28c-5.64,9.15 -4.66,20.73 -3.44,31.38a90.38,90.38 0 0 1 -11.64,-51.77a34.75,34.75 0 0 0 -8.07,18.2c-7.64,-9.9 -6.49,-23.7 -5,-36.13a61.79,61.79 0 0 0 -15.8,19.87c-1.33,-16.74 6.87,-32.63 14.84,-47.48a60.07,60.07 0 0 1 -17.55,16.13a269.29,269.29 0 0 0 10.5,-31.39a23.14,23.14 0 0 1 -7.51,10.82a7.78,7.78 0 0 1 -0.53,2.07c-4.59,10.11 -16.13,23.59 -16.75,24.77c0,0 7.28,-0.82 12.33,-5.51c-7.81,14.92 5,42.72 11.21,49.74c-1.18,-3.18 -0.92,-7.67 1.84,-9.67c-1.35,29.05 22.88,46 22.88,46s-3.32,-6.56 -0.52,-10.25c1.57,8 35.9,19.14 35.9,35.14c0,-16.23 36.92,-28 40.76,-50.29c0.62,0 1.57,6.59 -0.33,9c17.58,-10.33 29.18,-43.12 27.9,-52.6c2.76,3 4.37,9.78 4.37,9.78s10.59,-24.5 -0.33,-45.12c-4.13,-7.88 -8.07,-11.41 -11.51,-13.88c1.11,5 3.64,9.58 6.13,14.07a26.35,26.35 0 0 0 -18.2,-8.07z" class="cls-2"/>
  <path id="svg_3" d="m78.56,22.03c-37.84,-0.95 -52.36,-12.4 -52.36,-22c0,17.8 -8.2,24 -8.92,29.8a23.17,23.17 0 0 0 7.51,-10.8a271.19,271.19 0 0 1 -10.5,31.38a60.19,60.19 0 0 0 17.55,-16.12c-7.97,14.85 -16.17,30.74 -14.84,47.48a61.3,61.3 0 0 1 15.79,-19.87c-1.48,12.43 -2.59,26.26 5,36.23a34.73,34.73 0 0 1 8.15,-18.2a90.44,90.44 0 0 0 11.61,51.84c-1.18,-10.65 -2.2,-22.23 3.44,-31.38a124.14,124.14 0 0 1 9.87,28a132.85,132.85 0 0 0 9.84,-28.2a101.58,101.58 0 0 1 13.15,33.15a126.41,126.41 0 0 0 5.7,-38.43a59.84,59.84 0 0 1 8.2,29.48a81.16,81.16 0 0 0 10.92,-46a95.2,95.2 0 0 1 6,15c6.36,-9.7 2.23,-22.49 -2.06,-33.21a32.71,32.71 0 0 1 13.79,19.85a72.4,72.4 0 0 0 -8.56,-36.33a62.35,62.35 0 0 1 16.46,18.49a67.08,67.08 0 0 0 -11.83,-37a26.16,26.16 0 0 1 18.19,8.07c-2.49,-4.49 -5,-9.08 -6.13,-14.07c-5.54,-3.93 -9.93,-5.44 -12.43,-19c-0.03,9.44 -15.67,22.72 -53.54,21.84z" class="cls-3"/>
  <path id="svg_4" d="m57.94,28.22c-6.69,5.81 -7.93,18.3 -6.65,27a21.77,21.77 0 0 1 6.25,-10.6c-1.67,5 0.17,10.46 2.17,15.38c2.39,5.9 5.08,11.74 9,16.72a35.11,35.11 0 0 1 1.37,-20.53c0,2.46 1.32,4.73 2.5,6.89a119.73,119.73 0 0 1 11.8,31.58c5.34,-10.63 3.62,-23.38 7,-34.76c4.85,4.85 6.06,12.13 6.82,18.92a49.89,49.89 0 0 0 4.59,-28.53a29,29 0 0 1 7.9,12.74a46.23,46.23 0 0 0 -1,-23.38c-1.48,-4.75 -4.07,-9.6 -8.63,-11.74a18.64,18.64 0 0 0 -5.54,-1.44c-3.28,-0.46 -6.59,-0.72 -9.9,-1a64.07,64.07 0 0 0 -12.23,-0.1a21.66,21.66 0 0 0 -11.25,4.36" class="cls-4"/>
  <path id="svg_5" d="m58.94,27.11c-1.89,16.92 34.34,27.74 43.46,1.44c2.82,-8.13 -43.02,-5.77 -43.46,-1.44z" class="cls-5"/>
  <path id="svg_6" d="m61.74,33.34c0,2.66 37.25,1.77 37.18,-0.66c0,-0.52 0.26,-6.13 0.3,-6.75c-10.46,0.56 -28.36,0.29 -37.51,3.08l0,4.33l0.03,0z" class="cls-6"/>
  <path id="svg_7" d="m80.3,20.36c6.59,6.85 41.41,8.06 50.3,-2.53c-6.07,5.08 -14.14,4.56 -16.89,3.54a7.66,7.66 0 0 0 5.64,-5.9c-15.18,15.31 -19.64,-10.95 -38.85,3.08c-15.87,-11.52 -26.3,4.82 -38.4,-0.85l5.15,3.67s-7.58,5 -16.89,-3.54a21.69,21.69 0 0 0 4.23,4.69c12.98,4.51 39.54,2.75 45.71,-2.16z" class="cls-4"/>
  <path id="svg_8" d="m80.5,26.42c11.67,6.49 40.42,6.2 50.1,-8.56l0,0c-8.89,10.56 -43.71,9.35 -50.3,2.5c-6.17,4.91 -32.73,6.67 -45.71,2.16c12.1,10.07 35.61,9.64 45.91,3.9z" class="cls-2"/>
  <path id="svg_9" d="m84.46,156.66c-6.75,3.77 -15.9,24.2 1.31,40.33c-1.31,-15.15 14.3,-23.81 -1.31,-40.33" class="cls-2"/>
  <path id="svg_10" d="m84.07,156.66c-3.31,3.77 -6.72,24.2 1.74,40.33c-0.66,-15.15 5.9,-23.81 -1.74,-40.33" class="cls-3"/>
  <path id="svg_11" d="m64.53,153.41c1.34,-2.65 18.72,2.66 18.72,2.66s15.31,-6.1 18.1,-5.15s1.87,15.71 0,15.71s-18.07,-8.27 -18.07,-8.27s-15.64,8.5 -17.18,8.27s-2.36,-11.6 -1.57,-13.22z" class="cls-7"/>
  <use stroke="null" transform="matrix(8.078244857490063,0,0,8.078244857490063,-2.5429538153111935,-2.5429538153111935) " id="svg_39" y="0.5" x="0.5" xlink:href="#S"/>
  <use stroke="null" transform="matrix(8.078244857490063,0,0,8.078244857490063,-2.5429538153111935,-2.5429538153111935) " id="svg_44" y="0.5" x="0.5" xlink:href="#S"/>
  <use stroke="null" transform="matrix(8.078244857490063,0,0,8.078244857490063,-2.5429538153111935,-2.5429538153111935) " id="svg_45" y="0.5" x="0.5" xlink:href="#S"/>
  <use stroke="null" transform="matrix(8.078244857490063,0,0,8.078244857490063,-2.5429538153111935,-2.5429538153111935) " id="svg_46" y="0.5" x="0.5" xlink:href="#S"/>
  <style transform="matrix(1.020514444380538,0,0,1.020514444380538,0,0) ">
   <![CDATA[.B{fill-rule:nonzero}.C{stroke:none}]]>
  </style>
  <defs>
   <linearGradient y2="100%" x2="50%" y1="0%" x1="50%" id="svg_86">
    <stop stop-color="#0994dc" offset="0%"/>
    <stop stop-color="#66cef5" offset="35%"/>
    <stop stop-color="#127bca" offset="85%"/>
    <stop stop-color="#127bca" offset="100%"/>
   </linearGradient>
   <linearGradient y2="100%" x2="50%" y1="0%" x1="50%" id="svg_85">
    <stop stop-color="#0e76bc" offset="0%"/>
    <stop stop-color="#36aee8" offset="36%"/>
    <stop stop-color="#00adef" offset="84%"/>
    <stop stop-color="#00adef" offset="100%"/>
   </linearGradient>
   <linearGradient y2="0%" x2="50%" y1="100%" x1="50%" id="svg_84">
    <stop stop-color="#1c63b7" offset="0%"/>
    <stop stop-color="#33bdf2" offset="50%"/>
    <stop stop-opacity="0.5" stop-color="#33bdf2" offset="100%"/>
   </linearGradient>
   <linearGradient y2="100%" x2="50%" y1="0%" x1="50%" id="svg_83">
    <stop stop-color="#166ab8" offset="0%"/>
    <stop stop-color="#36aee8" offset="38%"/>
    <stop stop-color="#0798dd" offset="84%"/>
    <stop stop-color="#0798dd" offset="100%"/>
   </linearGradient>
   <linearGradient y2="100%" x2="50%" y1="0%" x1="50%" id="svg_82">
    <stop stop-color="#124379" offset="0%"/>
    <stop stop-color="#1487cb" offset="38%"/>
    <stop stop-color="#165197" offset="84%"/>
    <stop stop-color="#165197" offset="100%"/>
   </linearGradient>
   <linearGradient y2="0%" x2="50%" y1="100%" x1="50%" id="svg_81">
    <stop stop-opacity="0.5" stop-color="#33bdf2" offset="0%"/>
    <stop stop-color="#1dacd8" offset="100%"/>
   </linearGradient>
   <linearGradient y2="0%" x2="50%" y1="100%" x1="50%" id="svg_80">
    <stop stop-color="#136ab4" offset="0%"/>
    <stop stop-opacity="0.5" stop-color="#59caf5" offset="61%"/>
    <stop stop-opacity="0.2" stop-color="#59caf5" offset="100%"/>
   </linearGradient>
   <linearGradient y2="100%" x2="50%" y1="0%" x1="50%" id="svg_79">
    <stop stop-color="#05a1e6" offset="0%"/>
    <stop stop-opacity="0.25" stop-color="#05a1e6" offset="100%"/>
   </linearGradient>
   <linearGradient y2="0%" x2="50%" y1="100%" x1="50%" id="svg_78">
    <stop stop-color="#318ed5" offset="0%"/>
    <stop stop-color="#38a7e4" offset="100%"/>
   </linearGradient>
   <linearGradient y2="0%" x2="50%" y1="100%" x1="50%" id="svg_77">
    <stop stop-color="#05a1e6" offset="0%"/>
    <stop stop-opacity="0.25" stop-color="#05a1e6" offset="100%"/>
   </linearGradient>
   <linearGradient y2="0%" x2="50%" y1="100%" x1="50%" id="svg_76">
    <stop stop-color="#1959a6" offset="0%"/>
    <stop stop-color="#05a1e6" offset="50%"/>
    <stop stop-color="#7ec5ea" offset="100%"/>
   </linearGradient>
   <linearGradient y2="0%" x2="50%" y1="100%" x1="50%" id="svg_75">
    <stop stop-color="#165096" offset="0%"/>
    <stop stop-color="#0d82ca" offset="100%"/>
   </linearGradient>
   <linearGradient y2="100%" x2="50%" y1="0%" x1="50%" id="svg_74">
    <stop stop-color="#05a1e6" offset="0%"/>
    <stop stop-color="#0495d6" offset="85%"/>
    <stop stop-color="#0495d6" offset="100%"/>
   </linearGradient>
   <linearGradient y2="0%" x2="50%" y1="100%" x1="50%" id="svg_73">
    <stop stop-color="#38a7e4" offset="0%"/>
    <stop stop-opacity="0.3" stop-color="#0e88d3" offset="100%"/>
   </linearGradient>
   <linearGradient y2="100%" x2="50%" y1="0%" x1="50%" id="svg_72">
    <stop stop-color="#168cd4" offset="0%"/>
    <stop stop-color="#1c87cc" offset="70%"/>
    <stop stop-color="#154b8d" offset="100%"/>
   </linearGradient>
   <linearGradient y2="50%" x2="100%" y1="50%" x1="0%" id="svg_71">
    <stop stop-color="#97d6ee" offset="0%"/>
    <stop stop-color="#55c1ea" offset="100%"/>
   </linearGradient>
   <linearGradient y2="50%" x2="100%" y1="50%" x1="0%" id="svg_70">
    <stop stop-color="#7accec" offset="0%"/>
    <stop stop-color="#3fb7ed" offset="100%"/>
   </linearGradient>
   <linearGradient y2="100%" x2="50%" y1="0%" x1="50%" id="svg_69">
    <stop stop-color="#1da7e7" offset="0%"/>
    <stop stop-opacity="0" stop-color="#37abe7" offset="100%"/>
   </linearGradient>
  </defs>
  <symbol transform="matrix(1.020514444380538,0,0,1.020514444380538,0,0) " id="svg_68">
   <path id="svg_89" class="B C" fill="#000" d="m53.147,23.08l-0.57,0l0,1.772l-0.233,0l0,-1.772l-0.572,0l0,-0.2l1.375,0l0,0.2zm2.336,1.772l-0.232,0l0,-1.332l0.02,-0.385a1.35,1.35 0 0 1 -0.062,0.194l-0.675,1.523l-0.113,0l-0.677,-1.512a1.1,1.1 0 0 1 -0.061,-0.205l-0.008,0c0.008,0.08 0.01,0.2 0.01,0.388l0,1.33l-0.222,0l0,-1.983l0.307,0l0.608,1.384a1.8,1.8 0 0 1 0.09,0.238l0.01,0l0.096,-0.244l0.62,-1.378l0.292,0l0,1.983l-0.003,-0.001z"/>
   <path id="svg_90" class="B C" fill="url(#svg_86)" d="m22.228,5.207c2.307,7.053 3.18,19.636 9.925,19.636l0,0c0.514,0 1.032,-0.05 1.553,-0.15l0,0c-6.13,-1.43 -6.858,-13.875 -10.6,-20.32l0,0c-0.293,0.267 -0.585,0.545 -0.88,0.834"/>
   <path id="svg_91" class="B C" fill="url(#svg_85)" d="m23.107,4.373c3.74,6.445 4.468,18.89 10.6,20.32l0,0c0.482,-0.09 0.964,-0.222 1.448,-0.39l0,0c-5.505,-2.697 -7.025,-14.783 -11.275,-20.601l0,0a26.48,26.48 0 0 0 -0.774,0.671"/>
   <path id="svg_92" class="B C" fill="#14559a" d="m28.498,0.54a8.33,8.33 0 0 0 -1.554,0.149c-1.365,0.257 -2.75,0.845 -4.15,1.734c0.382,0.377 0.745,0.808 1.087,1.278c1.42,-1.18 2.834,-2.05 4.24,-2.575c0.528,-0.196 1.054,-0.343 1.582,-0.44c-0.38,-0.086 -0.781,-0.146 -1.205,-0.146"/>
   <path id="svg_93" class="B C" fill="url(#svg_84)" d="m39.45,21.816l1.692,-1.483c-2.342,-7.02 -3.182,-19.783 -9.972,-19.783a8.04,8.04 0 0 0 -1.465,0.136c6.187,1.54 6.98,15 9.747,21.13"/>
   <path id="svg_94" class="B C" fill="#3092c4" d="m29.704,0.687a4.88,4.88 0 0 0 -1.206,-0.147l2.67,0.01c-0.486,0 -0.976,0.045 -1.465,0.137"/>
   <path id="svg_95" class="B C" fill="#1969bc" d="m39.332,23.308c-0.266,-0.253 -0.518,-0.53 -0.766,-0.828c-1.142,0.81 -2.28,1.422 -3.412,1.822c0.402,0.197 0.824,0.343 1.272,0.433a5.39,5.39 0 0 0 1.084,0.107c1.27,0 2.273,-0.15 3.127,-0.56c-0.47,-0.254 -0.902,-0.584 -1.305,-0.975"/>
   <path id="svg_96" class="B C" fill="url(#svg_83)" d="m28.122,1.128c5.54,2.898 6.023,16.023 10.445,21.353l0,0c0.296,-0.21 0.6,-0.43 0.883,-0.664l0,0c-2.768,-6.13 -3.56,-19.593 -9.745,-21.13l0,0c-0.528,0.1 -1.055,0.245 -1.583,0.442"/>
   <path id="svg_97" class="B C" fill="url(#svg_82)" d="m23.88,3.702c4.25,5.818 5.77,17.904 11.273,20.6l0,0c1.13,-0.4 2.27,-1.013 3.412,-1.822l0,0c-4.42,-5.33 -4.902,-18.454 -10.445,-21.352l0,0c-1.407,0.523 -2.82,1.395 -4.24,2.574"/>
   <path id="svg_98" class="B C" fill="url(#svg_81)" d="m19.5,5.037c-0.666,1.506 -1.346,3.485 -2.17,6.068c1.635,-2.305 3.266,-4.3 4.887,-5.9c-0.223,-0.687 -0.463,-1.32 -0.72,-1.884c-0.663,0.507 -1.33,1.08 -1.997,1.714"/>
   <path id="svg_99" class="B C" fill="#2b74b1" d="m22.098,2.89l-0.6,0.434a17.74,17.74 0 0 1 0.72,1.884l0.88,-0.834c-0.314,-0.54 -0.647,-1.037 -1,-1.484"/>
   <path id="svg_100" class="B C" fill="#125a9e" d="m22.795,2.423l-0.698,0.465c0.362,0.447 0.696,0.945 1.01,1.485l0.774,-0.672c-0.342,-0.47 -0.705,-0.902 -1.087,-1.278"/>
   <path id="svg_101" class="B C" fill="url(#svg_80)" d="m60.592,0.003c-3.134,12.086 -9.68,21.794 -15.168,24.242l-0.307,0.127c-0.013,0.008 -0.026,0.01 -0.036,0.014c-0.03,0.012 -0.056,0.02 -0.084,0.032c-0.013,0.008 -0.026,0.01 -0.038,0.016c-0.046,0.017 -0.092,0.03 -0.137,0.05c-0.02,0.008 -0.038,0.013 -0.057,0.02s-0.044,0.016 -0.068,0.022s-0.042,0.014 -0.066,0.023s-0.04,0.012 -0.06,0.02c-0.04,0.012 -0.077,0.02 -0.117,0.035c-0.017,0 -0.032,0.01 -0.05,0.013c-0.025,0.008 -0.053,0.014 -0.08,0.02c-0.02,0.008 -0.034,0.01 -0.054,0.015c-0.028,0.008 -0.06,0.016 -0.086,0.022l-0.105,0.023c0.248,0.092 0.506,0.138 0.785,0.138c5.206,0 10.454,-9.325 19.136,-24.835l-3.41,0l0.002,0.003z"/>
   <path id="svg_102" class="B C" fill="url(#svg_79)" d="m16.21,1.03c0.013,-0.008 0.02,-0.008 0.022,-0.016c0.035,-0.01 0.062,-0.02 0.09,-0.032s0.03,-0.016 0.038,-0.017l0.09,-0.032c0.074,-0.02 0.138,-0.046 0.205,-0.07c0.01,0 0.02,-0.008 0.03,-0.008l0.085,-0.026c0.013,-0.008 0.027,-0.008 0.04,-0.012l0.086,-0.026c0.012,0 0.024,-0.008 0.033,-0.01l0.286,-0.074c0.013,0 0.025,-0.008 0.04,-0.01c0.028,-0.008 0.054,-0.012 0.083,-0.017c0.012,-0.008 0.027,-0.008 0.04,-0.012c0.028,-0.008 0.054,-0.01 0.084,-0.016l0.194,-0.032l0.035,0c0.028,-0.008 0.052,-0.01 0.08,-0.014c0.015,0 0.03,-0.008 0.045,-0.008c0.026,0 0.05,-0.008 0.077,-0.012c0.013,0 0.027,0 0.042,-0.008l0.187,-0.017l-0.554,-0.03c-5.856,0.004 -13.931,10.879 -17.568,24.959l0.7,0c1.164,-2.076 2.2,-4.04 3.166,-5.883c2.548,-9.973 7.737,-16.777 12.346,-18.577"/>
   <g id="svg_103" fill="#0d82ca">
    <path id="svg_104" class="B C" d="m19.5,5.037a24.34,24.34 0 0 1 1.997,-1.714l-0.476,-0.92c-0.536,0.65 -1.026,1.51 -1.52,2.633"/>
    <path id="svg_105" class="B C" d="m19.99,1.113c0.383,0.32 0.726,0.763 1.04,1.292l0.303,-0.34c-0.435,-0.407 -0.906,-0.74 -1.416,-0.99c0.02,0.01 0.04,0.02 0.063,0.03"/>
   </g>
   <path id="svg_106" class="B C" fill="url(#svg_78)" d="m3.867,19.61c5.343,-10.3 7.876,-16.816 12.345,-18.58l0,0c-4.608,1.803 -9.798,8.606 -12.345,18.58"/>
   <path id="svg_107" class="B C" fill="#127bca" d="m21.334,2.066l-0.303,0.34a9.56,9.56 0 0 1 0.477,0.919l0.6,-0.434c-0.242,-0.298 -0.497,-0.575 -0.764,-0.823"/>
   <path id="svg_108" class="B C" fill="url(#svg_77)" d="m6.292,25.446l0,0c-0.033,0.008 -0.066,0.008 -0.097,0.012c-0.046,0 -0.075,0.008 -0.1,0.008l-0.2,0.013l-0.02,0c5.41,-0.15 7.88,-2.86 9.108,-6.787l2.37,-7.59c-2.265,3.19 -4.54,7 -6.83,11.248c-1.103,2.052 -2.78,2.9 -4.22,3.093"/>
   <path id="svg_109" class="B C" fill="url(#svg_76)" d="m6.293,25.444l0,0c1.44,-0.183 3.117,-1.04 4.22,-3.093l0,0c2.288,-4.257 4.565,-8.06 6.828,-11.248l0,0c0.823,-2.584 1.503,-4.563 2.17,-6.068l0,0c-4.511,4.295 -9.041,11.435 -13.218,20.407"/>
   <path id="svg_110" class="B C" fill="#05a1e6" d="m3.866,19.61l-3.166,5.882l2.04,0a49.83,49.83 0 0 1 1.127,-5.882"/>
   <path id="svg_111" class="B C" fill="url(#svg_75)" d="m17.94,0.585c-0.017,0 -0.03,0.008 -0.043,0.008l0,0c-0.025,0.008 -0.05,0.008 -0.076,0.01l0,0c-0.015,0 -0.03,0 -0.045,0.008l0,0c-0.028,0.008 -0.054,0.01 -0.08,0.014l0,0c-0.012,0 -0.025,0 -0.035,0.008l0,0l-0.174,0.03l-0.02,0a0.69,0.69 0 0 1 -0.084,0.017l0,0c-0.014,0.008 -0.03,0.008 -0.042,0.01l0,0c-0.028,0.008 -0.056,0.012 -0.082,0.017l0,0c-0.014,0.008 -0.026,0.008 -0.04,0.01l0,0l-0.286,0.074c-0.01,0 -0.02,0.008 -0.033,0.01l0,0l-0.086,0.026c-0.012,0.008 -0.027,0.008 -0.04,0.01l0,0l-0.085,0.026c-0.01,0 -0.02,0.008 -0.03,0.008l0,0l-0.2,0.07l-0.09,0.03c-0.012,0.008 -0.024,0.01 -0.038,0.016l0,0c-0.03,0.01 -0.058,0.02 -0.084,0.03l0,0c-0.01,0.008 -0.02,0.01 -0.028,0.013l0,0c-4.47,1.764 -7,8.28 -12.345,18.58l0,0a49.62,49.62 0 0 0 -1.127,5.882l0.286,0l2.3,-0.008l0.56,0c0.064,-0.008 0.13,-0.008 0.197,-0.013l0.01,0c0.028,0 0.056,-0.008 0.082,-0.008l0.02,0c0.03,0 0.064,-0.008 0.097,-0.012l0,0c4.178,-8.973 8.706,-16.113 13.218,-20.407l0,0c0.496,-1.124 0.985,-1.982 1.52,-2.632l0,0c-0.313,-0.53 -0.656,-0.972 -1.04,-1.293l0,0l-0.01,-0.008c-0.022,-0.01 -0.042,-0.02 -0.064,-0.03l0,0c-0.022,-0.012 -0.04,-0.02 -0.063,-0.032l0,0a0.68,0.68 0 0 1 -0.062,-0.03l0,0c-0.027,-0.008 -0.048,-0.02 -0.072,-0.03l0,0c-0.02,-0.008 -0.037,-0.017 -0.057,-0.025l0,0c-0.04,-0.016 -0.08,-0.032 -0.118,-0.05l0,0c-0.018,-0.014 -0.034,-0.008 -0.051,-0.014l0,0c-0.028,-0.01 -0.06,-0.023 -0.09,-0.035l0,0c-0.014,-0.008 -0.03,-0.01 -0.047,-0.016l0,0l-0.123,-0.042l-0.01,0c-0.046,-0.007 -0.092,-0.027 -0.13,-0.041l0,0c-0.01,-0.008 -0.02,-0.008 -0.032,-0.01l0,0l-0.12,-0.034c-0.01,0 -0.02,-0.008 -0.028,-0.008l0,0c-0.097,-0.026 -0.197,-0.046 -0.297,-0.065l0,0c-0.01,0 -0.02,-0.008 -0.03,-0.008l0,0c-0.043,-0.008 -0.085,-0.016 -0.13,-0.02l0,0c-0.01,-0.008 -0.017,-0.008 -0.026,-0.008l0,0c-0.05,-0.008 -0.102,-0.014 -0.152,-0.02l0,0l-0.027,0c-0.04,-0.008 -0.08,-0.01 -0.117,-0.013l0,0c-0.065,0.008 -0.127,0.012 -0.187,0.017"/>
   <path id="svg_112" class="B C" fill="url(#svg_74)" d="m48.35,6.694l-2.585,8.246c2.82,-3.882 5.6,-8.766 8.246,-14.402l0,0c-3.087,0.97 -4.734,3.19 -5.66,6.156"/>
   <path id="svg_113" class="B C" fill="url(#svg_73)" d="m45.854,24.04l-0.43,0.206c5.488,-2.449 12.034,-12.156 15.168,-24.243l-0.635,0c-7.2,12.862 -9.516,21.473 -14.103,24.036"/>
   <path id="svg_114" class="B C" fill="#079ae1" d="m42.27,22.958c1.194,-1.457 2.167,-3.935 3.494,-8.018c-1.532,2.104 -3.073,3.912 -4.616,5.387c0.328,1.022 0.698,1.912 1.12,2.63"/>
   <path id="svg_115" class="B C" fill="#1969bc" d="m42.27,22.958c-0.407,0.496 -0.837,0.874 -1.315,1.154l-0.32,0.17c0.505,0.273 1.057,0.455 1.675,0.528l0,0l0.274,0.024l0.017,0a0.73,0.73 0 0 1 0.132,0.008l0.446,0c0.017,0 0.034,0 0.05,-0.008c0.032,0 0.066,0 0.1,-0.008l0.05,0c0.034,0 0.07,-0.008 0.107,-0.012c0.02,0 0.03,-0.008 0.04,-0.008c0.038,-0.008 0.077,-0.012 0.114,-0.017l0.034,0l0.13,-0.02l0.008,0l0.27,-0.054c-0.708,-0.26 -1.3,-0.87 -1.81,-1.74"/>
   <g id="svg_116" fill="#1e5cb3">
    <path id="svg_117" class="B C" d="m32.153,24.842c0.514,0 1.032,-0.05 1.553,-0.15c0.482,-0.087 0.964,-0.22 1.448,-0.4c0.402,0.197 0.824,0.343 1.27,0.433a5.4,5.4 0 0 0 1.085,0.107l-5.357,0l0.001,0.01z"/>
    <path id="svg_118" class="B C" d="m37.51,24.843c1.268,0 2.273,-0.15 3.126,-0.56c0.505,0.273 1.057,0.455 1.675,0.528l0,0l0.274,0.024l0.017,0a0.73,0.73 0 0 1 0.132,0.008l0.154,0l-5.38,0l0.002,0z"/>
   </g>
   <path id="svg_119" class="B C" fill="#1d60b5" d="m42.9,24.842l0.293,0c0.017,0 0.034,0 0.05,-0.008c0.032,0 0.066,0 0.1,-0.008l0.05,0c0.034,0 0.07,-0.008 0.106,-0.01c0.02,0 0.03,-0.008 0.04,-0.008c0.038,-0.008 0.077,-0.01 0.114,-0.017c0.012,0 0.022,0 0.035,-0.008l0.13,-0.02l0.008,0l0.27,-0.054c0.248,0.092 0.506,0.138 0.785,0.138l-1.978,0.008l-0.003,-0.013z"/>
   <path id="svg_120" class="B C" fill="#175fab" d="m41.144,20.34l-1.692,1.475l-0.884,0.664c0.248,0.296 0.5,0.574 0.766,0.828c0.403,0.39 0.835,0.72 1.305,0.975l0.318,-0.17a4.88,4.88 0 0 0 1.316,-1.154c-0.42,-0.718 -0.8,-1.61 -1.127,-2.617"/>
   <path id="svg_121" class="B C" fill="url(#svg_72)" d="m57.946,0.003l-3.196,0l-0.506,0.025l-0.236,0.504c-2.646,5.636 -5.425,10.52 -8.246,14.402l0,0c-1.327,4.083 -2.3,6.56 -3.494,8.018l0,0c0.51,0.87 1.104,1.483 1.8,1.742l0,0c0.02,-0.008 0.037,-0.008 0.056,-0.012l0.01,0c0.012,0 0.026,-0.008 0.04,-0.008l0,0c0.03,-0.008 0.06,-0.013 0.09,-0.022l0,0c0.02,-0.008 0.034,-0.01 0.053,-0.015l0,0c0.027,-0.008 0.055,-0.014 0.08,-0.02l0,0c0.017,-0.008 0.033,-0.01 0.05,-0.014l0,0c0.04,-0.013 0.078,-0.023 0.117,-0.035l0,0c0.02,-0.008 0.038,-0.015 0.06,-0.02l0,0c0.023,-0.008 0.045,-0.014 0.066,-0.024l0,0c0.024,-0.008 0.047,-0.012 0.068,-0.02l0,0c0.02,-0.008 0.038,-0.013 0.056,-0.02l0,0c0.046,-0.017 0.092,-0.03 0.138,-0.05l0,0c0.012,0 0.025,-0.01 0.038,-0.014l0,0c0.028,-0.012 0.057,-0.02 0.084,-0.033l0,0c0.01,-0.008 0.023,-0.01 0.036,-0.013l0,0l0.296,-0.127l0.01,0a8.43,8.43 0 0 0 0.429,-0.206l0,0c4.587,-2.563 6.903,-11.173 14.104,-24.036l0,0l-2.01,0l0.007,-0.002z"/>
   <path id="svg_122" class="B C" fill="#7dcbec" d="m18.126,0.568c0.01,0 0.022,0 0.033,0.008c0.028,0 0.056,0 0.083,0.01l0.028,0l0.152,0.02c0.01,0 0.018,0 0.026,0.008l0.13,0.02c0.01,0 0.022,0.008 0.032,0.008l0.296,0.066c0.01,0 0.02,0.008 0.027,0.008l0.12,0.034c0.012,0 0.022,0.008 0.033,0.01l0.14,0.04l0.134,0.05c0.017,0.008 0.032,0.012 0.047,0.016l0.09,0.036c0.017,0 0.033,0.01 0.05,0.017l0.117,0.05l0.058,0.025a0.51,0.51 0 0 0 0.071,0.03l0.063,0.03l0.063,0.032c0.51,0.25 0.98,0.586 1.416,0.99a4.6,4.6 0 0 1 0.502,-0.456c-0.952,-0.675 -2.03,-1.06 -3.275,-1.06l-0.434,0.02"/>
   <path id="svg_123" class="B C" fill="#5ec5ed" d="m21.333,2.066c0.267,0.248 0.522,0.525 0.764,0.823l0.698,-0.465c-0.305,-0.305 -0.626,-0.578 -0.96,-0.814c-0.174,0.135 -0.34,0.287 -0.5,0.456"/>
   <path id="svg_124" class="B C" fill="url(#svg_71)" d="m18.126,0.568l0.434,-0.018c1.244,0 2.323,0.385 3.275,1.06c1.005,-0.793 2.219,-1.07 3.905,-1.07l-8.17,0a6.1,6.1 0 0 1 0.554,0.028"/>
   <path id="svg_125" class="B C" fill="url(#svg_70)" d="m25.74,0.54c-1.687,0 -2.9,0.277 -3.906,1.07c0.333,0.236 0.655,0.51 0.96,0.814c1.4,-0.89 2.784,-1.478 4.15,-1.735a8.42,8.42 0 0 1 1.553,-0.149l-2.757,0z"/>
   <path id="svg_126" class="B C" fill="url(#svg_69)" d="m45.765,14.943l2.586,-8.248c0.929,-2.969 2.573,-5.188 5.649,-6.157l0.238,-0.504c-5.032,0.302 -7.384,2.86 -8.567,6.652c-2.07,6.618 -3.323,10.908 -4.53,13.642c1.542,-1.474 3.084,-3.283 4.615,-5.385"/>
  </symbol>
  <defs>
   <linearGradient id="svg_165" y2="129.625092%" x2="49.9972467%" y1="-19.5160457%" x1="49.9972467%">
    <stop offset="0%" stop-color="#0994DC"/>
    <stop offset="35.000601%" stop-color="#66CEF5"/>
    <stop offset="35.000601%" stop-color="#66CEF5"/>
    <stop offset="84.616101%" stop-color="#127BCA"/>
    <stop offset="84.616101%" stop-color="#127BCA"/>
    <stop offset="100%" stop-color="#127BCA"/>
   </linearGradient>
   <linearGradient id="svg_164" y2="129.624154%" x2="50.0007616%" y1="-19.5161868%" x1="50.0007616%">
    <stop offset="0%" stop-color="#0E76BC"/>
    <stop offset="36.0001%" stop-color="#36AEE8"/>
    <stop offset="36.0001%" stop-color="#36AEE8"/>
    <stop offset="84.616101%" stop-color="#00ADEF"/>
    <stop offset="84.616101%" stop-color="#00ADEF"/>
    <stop offset="100%" stop-color="#00ADEF"/>
   </linearGradient>
   <linearGradient id="svg_163" y2="-6.21395776%" x2="49.9991979%" y1="110.921751%" x1="49.9991979%">
    <stop offset="0%" stop-color="#1C63B7"/>
    <stop offset="50%" stop-color="#33BDF2"/>
    <stop offset="100%" stop-opacity="0.41961" stop-color="#33BDF2"/>
   </linearGradient>
   <linearGradient id="svg_162" y2="129.627315%" x2="50.0009899%" y1="-19.5149993%" x1="50.0009899%">
    <stop offset="0%" stop-color="#166AB8"/>
    <stop offset="39.999399%" stop-color="#36AEE8"/>
    <stop offset="39.999399%" stop-color="#36AEE8"/>
    <stop offset="84.616101%" stop-color="#0798DD"/>
    <stop offset="84.616101%" stop-color="#0798DD"/>
    <stop offset="100%" stop-color="#0798DD"/>
   </linearGradient>
   <linearGradient id="svg_161" y2="129.626892%" x2="49.9985422%" y1="-19.5211325%" x1="49.9985422%">
    <stop offset="0%" stop-color="#124379"/>
    <stop offset="38.9999%" stop-color="#1487CB"/>
    <stop offset="38.9999%" stop-color="#1487CB"/>
    <stop offset="78.022802%" stop-color="#165197"/>
    <stop offset="78.022802%" stop-color="#165197"/>
    <stop offset="100%" stop-color="#165197"/>
   </linearGradient>
   <linearGradient id="svg_160" y2="50.000544%" x2="100.000291%" y1="50.000544%" x1="0.000304652977%">
    <stop offset="0%" stop-opacity="0.69804" stop-color="#33BDF2"/>
    <stop offset="100%" stop-color="#1DACD8"/>
   </linearGradient>
   <linearGradient id="svg_159" y2="-3.02458407%" x2="50.0095709%" y1="94.6864084%" x1="50.0095709%">
    <stop offset="0%" stop-color="#136AB4"/>
    <stop offset="60.000002%" stop-opacity="0.54902" stop-color="#59CAF5"/>
    <stop offset="100%" stop-opacity="0.23529" stop-color="#59CAF5"/>
   </linearGradient>
   <linearGradient id="svg_158" y2="49.999714%" x2="99.9992241%" y1="49.999714%" x1="-0.000760861053%">
    <stop offset="0%" stop-opacity="0.24706" stop-color="#05A1E6"/>
    <stop offset="100%" stop-color="#05A1E6"/>
   </linearGradient>
   <linearGradient id="svg_157" y2="-9.42137278%" x2="49.9983236%" y1="124.313712%" x1="49.9983236%">
    <stop offset="0%" stop-color="#318ED5"/>
    <stop offset="100%" stop-color="#38A7E4"/>
   </linearGradient>
   <linearGradient id="svg_156" y2="-76.7854074%" x2="49.99857%" y1="91.1999524%" x1="49.99857%">
    <stop offset="0%" stop-color="#05A1E6"/>
    <stop offset="100%" stop-opacity="0.54902" stop-color="#05A1E6"/>
   </linearGradient>
   <linearGradient id="svg_155" y2="0.0101898204%" x2="50.0000694%" y1="100.01049%" x1="50.0000694%">
    <stop offset="0%" stop-color="#1959A6"/>
    <stop offset="50%" stop-color="#05A1E6"/>
    <stop offset="50%" stop-color="#05A1E6"/>
    <stop offset="91.758698%" stop-color="#7EC5EA"/>
    <stop offset="100%" stop-color="#7EC5EA"/>
   </linearGradient>
   <linearGradient id="svg_154" y2="5.75513731%" x2="38.4710575%" y1="94.5677442%" x1="59.8041209%">
    <stop offset="0%" stop-color="#165096"/>
    <stop offset="100%" stop-color="#0D82CA"/>
   </linearGradient>
   <linearGradient id="svg_153" y2="-3.29893613%" x2="49.9946843%" y1="76.9980959%" x1="49.9946843%">
    <stop offset="0%" stop-color="#05A1E6"/>
    <stop offset="87.362701%" stop-color="#0495D6"/>
    <stop offset="100%" stop-color="#0495D6"/>
   </linearGradient>
   <linearGradient id="svg_152" y2="105.843625%" x2="34.2626975%" y1="-4.16143813%" x1="65.2631169%">
    <stop offset="0%" stop-opacity="0.32941" stop-color="#38A7E4"/>
    <stop offset="96.153301%" stop-color="#0E88D3"/>
    <stop offset="96.153301%" stop-color="#0E88D3"/>
    <stop offset="100%" stop-color="#0E88D3"/>
   </linearGradient>
   <linearGradient id="svg_151" y2="101.881944%" x2="50.016714%" y1="-0.295776148%" x1="50.016714%">
    <stop offset="0%" stop-color="#168CD4"/>
    <stop offset="50%" stop-color="#1C87CC"/>
    <stop offset="100%" stop-color="#154B8D"/>
   </linearGradient>
   <linearGradient id="svg_148" y2="127.96135%" x2="49.9966533%" y1="6.36281892%" x1="49.9966533%">
    <stop offset="0%" stop-color="#1DA7E7"/>
    <stop offset="100%" stop-opacity="0" stop-color="#37ABE7"/>
   </linearGradient>
  </defs>
  <g stroke="null" id="svg_224">
   <g stroke="null" transform="matrix(0.6277286042874642,0,0,0.6277286042874642,-1241.1578072989653,-750.9694552096961) " id="svg_169">
    <g stroke="null" id="svg_170" fill="#000000">
     <path stroke="null" id="svg_171" d="m2449.75443,1361.77049c0,-0.42929 -0.11779,-0.73616 -0.35993,-0.93675c-0.26824,-0.2159 -0.7322,-0.33102 -1.37803,-0.33102l-0.92849,0l0,2.5519l1.12057,0c1.03478,0 1.54588,-0.42928 1.54588,-1.28413l0,0zm1.4477,5.32075l-1.27595,0l-0.81369,-1.79548c-0.41325,-0.89973 -0.85493,-1.34959 -1.33744,-1.34959l-0.68707,0l0,3.14507l-1.05122,0l0,-7.48435l2.10633,0c0.93667,0 1.63978,0.20285 2.1227,0.6259c0.40895,0.36383 0.61343,0.8303 0.61343,1.41108c0,0.51532 -0.16689,0.94882 -0.50317,1.30835c-0.32722,0.36415 -0.79766,0.60954 -1.39869,0.73649l0,0.0324c0.41714,0.09819 0.83427,0.55624 1.23901,1.38232l0.98576,1.99186l0,-0.00405zm2.33106,-3.66858c0,-1.47224 -0.50285,-2.71546 -1.50497,-3.70122c-1.00602,-0.98544 -2.23296,-1.48018 -3.68065,-1.48018c-1.4929,0 -2.7358,0.49474 -3.72156,1.48868c-0.98576,0.99784 -1.47621,2.23255 -1.47621,3.69272c0,1.4929 0.51103,2.74009 1.5253,3.73404c1.00213,0.99362 2.22899,1.48439 3.67247,1.48439c1.4353,0 2.66216,-0.49474 3.67247,-1.50108c1.0103,-0.98973 1.51315,-2.23263 1.51315,-3.71735l0,0zm0.7074,-0.0324c0,1.65258 -0.5683,3.03878 -1.7092,4.15514c-1.14115,1.12478 -2.53983,1.6849 -4.21258,1.6849c-1.68466,0 -3.08326,-0.55194 -4.19597,-1.63589c-1.11206,-1.09991 -1.66432,-2.48223 -1.66432,-4.15895c0,-1.6401 0.56433,-3.0182 1.69308,-4.15084c1.12875,-1.12875 2.53553,-1.69309 4.21655,-1.69309c1.64796,0 3.03027,0.53979 4.15084,1.61523c1.149,1.10421 1.7216,2.49471 1.7216,4.1835l0,0z"/>
     <path stroke="null" id="svg_172" d="m2294.2845,1384.25952l-3.62734,0l0,-20.759c0,-1.63978 0.10799,-3.63553 0.30104,-5.99113l-0.08182,0c-0.33961,1.37802 -0.65045,2.37594 -0.92427,2.99366l-10.54307,23.75647l-1.76673,0l-10.56369,-23.58473c-0.29773,-0.65863 -0.60919,-1.71795 -0.92426,-3.1654l-0.0785,0c0.11124,1.239 0.17341,3.24715 0.17341,6.03204l0,20.71809l-3.49681,0l0,-30.91337l4.78488,0l9.48403,21.55633c0.71553,1.62374 1.17782,2.85878 1.40258,3.70123l0.1505,0c0.61737,-1.68912 1.10813,-2.95697 1.48044,-3.79123l9.6882,-21.46633l4.53947,0l0,30.91337l0.00194,0z"/>
     <path stroke="null" id="svg_173" d="m2305.4427,1384.25855l-3.52494,0l0,-22.07587l3.52494,0l0,22.07587l0,0zm0.60954,-29.98943c0,0.65037 -0.22903,1.19413 -0.68318,1.64011c-0.44557,0.44556 -0.99751,0.6707 -1.64399,0.6707c-0.62979,0 -1.17785,-0.21598 -1.62738,-0.64616c-0.44987,-0.4335 -0.67103,-0.98576 -0.67103,-1.66465c0,-0.63797 0.22246,-1.18173 0.67103,-1.62341c0.44953,-0.44168 0.99759,-0.65434 1.62738,-0.65434c0.64615,0 1.19842,0.21266 1.64399,0.65434c0.45415,0.44168 0.68318,0.98544 0.68318,1.62341l0,0z"/>
     <path stroke="null" id="svg_174" d="m2327.47304,1383.23714c-1.69309,1.03875 -3.71338,1.55407 -6.04873,1.55407c-3.165,0 -5.71301,-1.0509 -7.65967,-3.14904c-1.88946,-2.03666 -2.84216,-4.66609 -2.84216,-7.88877c0,-3.61552 1.03453,-6.5434 3.1202,-8.76816c2.0736,-2.22899 4.86278,-3.34137 8.37168,-3.34137c1.9179,0 3.61916,0.37622 5.10777,1.12057l0,3.62766c-1.64796,-1.15751 -3.39014,-1.73011 -5.25926,-1.73011c-2.24932,0 -4.0772,0.78526 -5.49647,2.35172c-1.47653,1.60316 -2.22477,3.74611 -2.22477,6.42074c0,2.56826 0.6831,4.60071 2.04088,6.10171c1.36174,1.49258 3.17359,2.24114 5.45952,2.24114c1.93029,0 3.73792,-0.63409 5.43101,-1.89756l0,3.3574l0,0z"/>
     <path stroke="null" id="svg_175" d="m2344.33477,1365.76425c-0.62161,-0.4783 -1.51704,-0.71161 -2.6991,-0.71161c-1.4353,0 -2.6419,0.64227 -3.61916,1.93847c-1.1085,1.44778 -1.66043,3.45171 -1.66043,6.01179l0,11.25468l-3.53345,0l0,-22.07587l3.53345,0l0,4.55194l0.08506,0c0.51953,-1.61134 1.32115,-2.85067 2.39263,-3.72974c1.0018,-0.80154 2.13476,-1.2066 3.38195,-1.2066c0.94064,0 1.6401,0.10142 2.1184,0.30096l0,3.66436l0.00065,0.00162z"/>
     <path stroke="null" id="svg_176" d="m2364.02822,1373.26068c0,-2.82572 -0.63798,-4.98503 -1.91393,-6.46554c-1.239,-1.42315 -2.96911,-2.13477 -5.19777,-2.13477c-2.19633,0 -3.95876,0.7198 -5.27595,2.15932c-1.39447,1.5377 -2.08964,3.70916 -2.08964,6.5271c0,2.64191 0.66252,4.71518 1.99996,6.19561c1.32893,1.48861 3.1202,2.23295 5.36563,2.23295c2.32288,0 4.10175,-0.75641 5.32043,-2.26139c1.1942,-1.47232 1.79127,-3.5541 1.79127,-6.25328m3.62345,-0.12428c0,3.51709 -0.99362,6.34322 -2.97308,8.46162c-1.98749,2.12658 -4.66212,3.18995 -8.02382,3.18995c-3.31261,0 -5.95062,-1.06337 -7.8848,-3.18995c-1.89367,-2.04906 -2.84638,-4.75642 -2.84638,-8.12201c0,-3.84032 1.07536,-6.80126 3.23467,-8.90329c1.99575,-1.95062 4.66617,-2.93217 8.01183,-2.93217c3.29195,0 5.86451,1.02635 7.71694,3.05912c1.8364,2.04476 2.76464,4.85849 2.76464,8.43673"/>
     <path stroke="null" id="svg_177" d="m2385.17519,1378.35249c0,1.80763 -0.67459,3.30442 -2.02839,4.49863c-1.47621,1.29231 -3.50469,1.93847 -6.05659,1.93847c-2.08996,0 -3.92215,-0.43747 -5.47621,-1.32901l0,-3.79942c1.73011,1.40687 3.63974,2.11452 5.73788,2.11452c2.79737,0 4.19994,-1.03057 4.19994,-3.08359c0,-0.86311 -0.30752,-1.57861 -0.92816,-2.13087c-0.62169,-0.56434 -1.82829,-1.23901 -3.62345,-2.02848c-1.84855,-0.80972 -3.16541,-1.63978 -3.9424,-2.50281c-0.93246,-1.02246 -1.4029,-2.35139 -1.4029,-3.98728c0,-1.83218 0.73219,-3.35773 2.17989,-4.57219c1.45167,-1.21875 3.31658,-1.82821 5.60672,-1.82821c1.75466,0 3.32509,0.34349 4.71948,1.03477l0,3.558c-1.45588,-1.05114 -3.12021,-1.57465 -5.00966,-1.57465c-1.16958,0 -2.11022,0.29116 -2.80969,0.85882c-0.7074,0.5807 -1.06337,1.32115 -1.06337,2.22477c0,0.97758 0.29773,1.73829 0.88766,2.28204c0.52342,0.50317 1.63581,1.1166 3.31261,1.83211c1.88516,0.78946 3.24715,1.60745 4.0772,2.44561c1.07569,1.0594 1.61944,2.40899 1.61944,4.04877"/>
     <path stroke="null" id="svg_178" d="m2406.76985,1373.26068c0,-2.82572 -0.63798,-4.98503 -1.9179,-6.46554c-1.23503,-1.42315 -2.96911,-2.13477 -5.1938,-2.13477c-2.19633,0 -3.95884,0.7198 -5.28389,2.15932c-1.39042,1.5377 -2.08178,3.70916 -2.08178,6.5271c0,2.64191 0.66252,4.71518 1.98756,6.19561c1.34571,1.48861 3.13698,2.23295 5.37811,2.23295c2.32677,0 4.10167,-0.75641 5.32043,-2.26139c1.19412,-1.47232 1.79127,-3.5541 1.79127,-6.25328m3.63155,-0.12428c0,3.51709 -1.0018,6.34322 -2.98539,8.46162c-1.97939,2.12658 -4.65402,3.18995 -8.01572,3.18995c-3.3165,0 -5.95451,-1.06337 -7.88877,-3.18995c-1.89359,-2.04906 -2.84638,-4.75642 -2.84638,-8.12201c0,-3.84032 1.08362,-6.80126 3.23086,-8.90329c1.99575,-1.95062 4.67038,-2.93217 8.01961,-2.93217c3.29227,0 5.86062,1.02635 7.70908,3.05912c1.84037,2.04476 2.77671,4.85849 2.77671,8.43673"/>
     <path stroke="null" id="svg_179" d="m2425.97179,1354.68164c-0.69525,-0.3844 -1.46795,-0.5807 -2.34742,-0.5807c-2.47437,0 -3.70131,1.55796 -3.70131,4.67856l0,3.40254l5.17355,0l0,2.99366l-5.17355,0l0,19.0822l-3.53733,0l0,-19.0822l-3.75429,0l0,-2.99366l3.75429,0l0,-3.57825c0,-2.42957 0.74426,-4.33531 2.25749,-5.70945c1.29653,-1.19421 2.883,-1.78706 4.76849,-1.78706c1.09213,0 1.94277,0.13092 2.56008,0.38449l0,3.18987l0,0z"/>
     <path stroke="null" id="svg_180" d="m2439.91812,1384.03609c-0.83427,0.47862 -1.94665,0.71583 -3.32079,0.71583c-3.85239,0 -5.77847,-2.17171 -5.77847,-6.51496l0,-13.05802l-3.78702,0l0,-2.99788l3.78702,0l0,-5.38588c1.12875,-0.35597 2.3023,-0.74434 3.54163,-1.14511l0,6.53099l5.55763,0l0,2.99788l-5.55763,0l0,12.45707c0,1.48043 0.24207,2.5395 0.74823,3.15293c0.51136,0.63401 1.34562,0.94485 2.52347,0.94485c0.87915,0 1.63977,-0.23558 2.28593,-0.71161l0,3.01391l0,0z"/>
    </g>
    <g stroke="null" id="svg_181" fill="#000000">
     <path stroke="null" id="svg_182" d="m2248.8997,1470.4177c0,1.72978 -0.61737,3.22657 -1.86488,4.49045c-1.24325,1.25958 -2.75248,1.89367 -4.52314,1.89367c-1.73008,0 -3.20235,-0.63409 -4.40862,-1.89367c-1.20661,-1.26388 -1.80762,-2.76067 -1.80762,-4.49045c0,-1.7788 0.60101,-3.27988 1.80762,-4.5231c1.20627,-1.24752 2.67854,-1.86491 4.40862,-1.86491c1.77066,0 3.27989,0.6259 4.52314,1.88945c1.24751,1.26388 1.86488,2.76456 1.86488,4.49856"/>
     <path stroke="null" id="svg_183" d="m2328.01648,1475.50165l-11.52454,0l-41.83276,-64.60387c-0.97759,-1.55407 -1.82005,-3.24318 -2.53558,-5.08752l-0.34386,0c0.29773,1.72979 0.45019,5.44316 0.45019,11.13203l0,58.55936l-9.50039,0l0,-81.05236l12.33042,0l40.58135,63.5857c1.61555,2.52314 2.71943,4.3307 3.27988,5.41861l0.2257,0c-0.37623,-2.33113 -0.57219,-6.30626 -0.57219,-11.9172l0,-57.08711l9.44283,0l0,81.05236l-0.00105,0z"/>
     <path stroke="null" id="svg_184" d="m2388.92139,1475.50165l-42.95761,0l0,-81.05236l41.0927,0l0,8.58823l-31.60045,0l0,26.9628l29.28178,0l0,8.59253l-29.28178,0l0,28.31659l33.46536,0l0,8.59221l0,0z"/>
     <path stroke="null" id="svg_185" d="m2454.08028,1403.0385l-23.34745,0l0,72.46444l-9.49614,0l0,-72.46444l-23.39273,0l0,-8.59213l56.23632,0l0,8.59213l0,0z"/>
    </g>
    <g stroke="null" id="svg_186">
     <path stroke="null" id="svg_187" fill="url(#svg_165)" d="m2324.79492,1254.45351c9.1648,28.02608 12.63692,78.02207 39.43632,78.02207l0,0c2.0407,0 4.10191,-0.19961 6.1713,-0.59317l0,0c-24.36197,-5.68037 -27.24926,-55.13252 -42.11508,-80.74184l0,0c-1.16561,1.05933 -2.32296,2.16353 -3.49254,3.31294"/>
     <path stroke="null" id="svg_188" fill="url(#svg_164)" d="m2328.28746,1251.14057c14.86582,25.60932 17.75311,75.06147 42.11508,80.74184l0,0c1.91392,-0.35168 3.83198,-0.88336 5.75408,-1.55407l0,0c-21.86726,-10.71481 -27.91177,-58.73539 -44.79376,-81.85422l0,0c-1.02246,0.85096 -2.04889,1.74251 -3.0754,2.66645"/>
     <path stroke="null" id="svg_189" fill="#14559A" d="m2349.70664,1235.91044c-2.03666,0 -4.10208,0.19953 -6.17535,0.59317c-5.42291,1.02238 -10.93145,3.35741 -16.48519,6.89086c1.51713,1.49679 2.96061,3.21021 4.31838,5.07933c5.64788,-4.68674 11.2589,-8.15052 16.84958,-10.2323c2.09782,-0.777 4.18779,-1.36166 6.28561,-1.74607c-1.51315,-0.38481 -3.10813,-0.58499 -4.79303,-0.58499"/>
     <path stroke="null" id="svg_190" fill="url(#svg_163)" d="m2393.2268,1320.45168c2.237,-1.77879 4.47814,-3.7461 6.72332,-5.89294c-9.31208,-27.89557 -12.6451,-78.60707 -39.63269,-78.60707c-1.93029,0 -3.87694,0.17993 -5.81954,0.53979c24.5828,6.11419 27.73185,59.59842 38.72891,83.96022"/>
     <path stroke="null" id="svg_191" fill="#3092C4" d="m2354.4987,1236.49341c-1.51316,-0.38441 -3.10805,-0.58459 -4.79303,-0.58459l10.61265,0.03888c-1.93037,0 -3.87702,0.17993 -5.81962,0.54409"/>
     <path stroke="null" id="svg_192" fill="#1969BC" d="m2392.75547,1326.37776c-1.05511,-1.00602 -2.05691,-2.11022 -3.04268,-3.28806c-4.53954,3.21442 -9.06264,5.65185 -13.55698,7.23864c1.59887,0.78129 3.27559,1.36207 5.05479,1.72193c1.37802,0.28135 2.80547,0.42531 4.30623,0.42531c5.04263,0 9.02991,-0.59706 12.42426,-2.22477c-1.8688,-1.01031 -3.58246,-2.31898 -5.18562,-3.87305"/>
     <path stroke="null" id="svg_193" fill="url(#svg_162)" d="m2348.21212,1238.24611c22.01867,11.51636 23.93259,63.66745 41.50165,84.84359l0,0c1.17784,-0.83006 2.34337,-1.70945 3.5089,-2.63802l0,0c-10.99698,-24.3618 -14.14198,-77.85033 -38.72065,-83.96022l0,0c-2.09798,0.39259 -4.19192,0.97369 -6.2899,1.75465"/>
     <path stroke="null" id="svg_194" fill="url(#svg_161)" d="m2331.36286,1248.47412c16.88199,23.11883 22.9265,71.13941 44.79376,81.85422l0,0c4.4945,-1.58679 9.01768,-4.02422 13.55715,-7.23864l0,0c-17.56906,-21.17614 -19.48298,-73.32723 -41.50165,-84.84359l0,0c-5.59052,2.07749 -11.20146,5.54127 -16.84926,10.22801"/>
     <path stroke="null" id="svg_195" fill="url(#svg_160)" d="m2313.99375,1253.77851c-2.64604,5.98335 -5.34927,13.84749 -8.61691,24.11253c6.49843,-9.15687 12.97644,-17.04563 19.4176,-23.43753c-0.88742,-2.72794 -1.84029,-5.24298 -2.8668,-7.48436c-2.63372,2.01633 -5.28794,4.28622 -7.93389,6.80936"/>
     <path stroke="null" id="svg_196" fill="#2B74B1" d="m2324.27401,1245.24399c-0.77707,0.55615 -1.55804,1.12478 -2.34321,1.72581c1.02635,2.24113 1.97509,4.75642 2.86274,7.48403c1.16934,-1.14511 2.33074,-2.25329 3.49222,-3.31261c-1.24719,-2.14302 -2.57224,-4.12241 -4.01175,-5.89723"/>
     <path stroke="null" id="svg_197" fill="#125A9E" d="m2327.0461,1243.39447c-0.92427,0.58499 -1.84425,1.20231 -2.77274,1.84846c1.43952,1.77491 2.76456,3.75429 4.01604,5.90153c1.0266,-0.92848 2.05294,-1.824 3.07541,-2.67066c-1.35778,-1.8688 -2.80126,-3.58254 -4.31871,-5.07933"/>
     <path stroke="null" id="svg_198" fill="url(#svg_159)" d="m2477.23215,1233.77624c-12.45311,48.02447 -38.46319,86.59791 -60.26913,96.32308l-0.04131,0c-0.39664,0.17993 -0.78931,0.34357 -1.17777,0.50284c-0.05346,0.03241 -0.10207,0.03646 -0.14331,0.0559c-0.11455,0.04618 -0.22084,0.08183 -0.33539,0.1276c-0.05347,0.0324 -0.10207,0.04294 -0.15109,0.06238c-0.1839,0.06562 -0.36399,0.12111 -0.54392,0.19305c-0.07777,0.03241 -0.15117,0.05266 -0.22513,0.07858c-0.08182,0.03241 -0.17604,0.06238 -0.26994,0.08839c-0.08174,0.0324 -0.16745,0.0559 -0.26175,0.09154c-0.07777,0.03241 -0.15959,0.04618 -0.23291,0.07859c-0.15968,0.04617 -0.30655,0.08506 -0.46623,0.14063c-0.06562,0 -0.12662,0.03565 -0.19629,0.05266c-0.09819,0.03241 -0.20877,0.0559 -0.31506,0.08506c-0.07372,0.03241 -0.1348,0.04294 -0.21266,0.05914c-0.11058,0.03241 -0.23331,0.06238 -0.34357,0.08839c-0.1472,0.0324 -0.27804,0.06238 -0.41713,0.09162c0.9856,0.36407 2.01211,0.54797 3.12044,0.54797c20.67718,0 41.52579,-37.056 76.02204,-98.67868l-13.54484,0l0.00495,0.01126z"/>
     <path stroke="null" id="svg_199" fill="url(#svg_158)" d="m2300.88647,1237.85936c0.01296,0 0.02916,-0.03241 0.03726,-0.03241c0.0162,0 0.04132,0 0.04942,-0.0324l0.02592,0c0.11447,-0.03889 0.22084,-0.08506 0.33531,-0.1276c0.02917,0 0.04456,0 0.06563,-0.0324c0.02916,0 0.05751,-0.03241 0.08603,-0.03646c0.12273,-0.03888 0.24539,-0.08506 0.35994,-0.12759l0.01944,0c0.27415,-0.08174 0.52756,-0.18317 0.79336,-0.27804c0.03727,0 0.07372,-0.0324 0.11844,-0.0324c0.11058,-0.03565 0.22513,-0.07534 0.33944,-0.10143c0.05347,-0.0324 0.10637,-0.0324 0.15539,-0.04942c0.11844,-0.03564 0.23331,-0.07534 0.34357,-0.10142c0.04942,0 0.09422,-0.03241 0.13084,-0.03565c0.38035,-0.10467 0.75657,-0.20286 1.13693,-0.29448c0.05347,0 0.09818,-0.03241 0.15538,-0.03565c0.11026,-0.0324 0.21274,-0.04941 0.33126,-0.06562c0.04942,-0.0324 0.10637,-0.0324 0.16365,-0.04942c0.11025,-0.0324 0.21654,-0.03564 0.33531,-0.06237l0.07777,0c0.22902,-0.04618 0.46218,-0.08507 0.6912,-0.1276l0.13902,0c0.11026,-0.0324 0.20844,-0.03565 0.31903,-0.0559c0.06075,0 0.12265,-0.0324 0.17992,-0.0324c0.10208,0 0.20448,-0.03241 0.30656,-0.04618c0.05346,0 0.10628,0 0.16785,-0.03241c0.2411,-0.0324 0.4907,-0.04536 0.74427,-0.06562c-0.71567,-0.06886 -1.45183,-0.11455 -2.20023,-0.11455c-23.28637,0 -55.36957,43.20689 -69.82235,99.16128l2.78504,0c4.62538,-8.24863 8.78046,-16.05169 12.57973,-23.37637c10.12185,-39.63252 30.73771,-66.6611 49.05112,-73.82189"/>
     <path stroke="null" id="svg_200" fill="#0D82CA" d="m2313.99399,1253.77851c2.64612,-2.52314 5.30017,-4.79303 7.93389,-6.80903c-0.60103,-1.31686 -1.22264,-2.53562 -1.88945,-3.65222c-2.13056,2.58463 -4.07721,5.99543 -6.04444,10.46125"/>
     <path stroke="null" id="svg_201" fill="#0D82CA" d="m2315.90694,1238.18689c1.52134,1.27595 2.883,3.03053 4.13051,5.13264c0.39259,-0.48259 0.78947,-0.92848 1.20239,-1.34562c-1.72978,-1.61531 -3.5989,-2.94035 -5.62738,-3.93819c0.08182,0.04537 0.16357,0.08183 0.24863,0.1178c0,0 0.0324,0.0324 0.04618,0.0324"/>
     <path stroke="null" id="svg_202" fill="url(#svg_157)" d="m2251.83576,1311.67963c21.23339,-40.91698 31.2939,-66.81259 49.05111,-73.82221l0,0c-18.30931,7.16532 -38.92926,34.19358 -49.05111,73.82221"/>
     <path stroke="null" id="svg_203" fill="#127BCA" d="m2321.23847,1241.97286c-0.41284,0.42143 -0.80543,0.86311 -1.20231,1.3457c0.66673,1.11627 1.2881,2.33106 1.89367,3.65189c0.78517,-0.60103 1.56613,-1.16966 2.34321,-1.72581c-0.96089,-1.18603 -1.97517,-2.28602 -3.03457,-3.27178"/>
     <path stroke="null" id="svg_204" fill="url(#svg_156)" d="m2261.47503,1334.8721l0,0c-0.13087,0.0324 -0.26173,0.0324 -0.38443,0.04618l-0.07364,0c-0.11058,0 -0.22509,0.0324 -0.32717,0.0324l-0.0533,0c-0.26567,0.03241 -0.52757,0.03241 -0.78113,0.05266l-0.08179,0c21.49105,-0.60136 31.31433,-11.36138 36.18919,-26.96741c3.70519,-11.83117 6.74795,-21.79776 9.4144,-30.16093c-9.00132,12.66973 -18.04354,27.77259 -27.13479,44.69152c-4.38409,8.15473 -11.05019,11.56123 -16.76751,12.28954"/>
     <path stroke="null" id="svg_205" fill="url(#svg_155)" d="m2261.47503,1334.86392l0,0c5.71732,-0.72831 12.38343,-4.13084 16.76751,-12.28954l0,0c9.09124,-16.91472 18.13752,-32.02179 27.13065,-44.69153l0,0c3.2717,-10.26924 5.97088,-18.12917 8.62096,-24.11252l0,0c-17.92486,17.06199 -35.91929,45.43198 -52.51912,81.0854"/>
     <path stroke="null" id="svg_206" fill="#05A1E6" d="m2251.83474,1311.68061c-3.79911,7.32467 -7.95418,15.12773 -12.57972,23.37636l8.10173,0c1.07149,-8.19176 2.59284,-16.00292 4.47799,-23.37248"/>
     <path stroke="null" id="svg_207" fill="url(#svg_154)" d="m2307.74929,1236.09102c-0.06562,0 -0.11455,0.0324 -0.17175,0.0324l0,0c-0.09818,0.03241 -0.20058,0.03241 -0.30266,0.04294l0,0c-0.06076,0 -0.11844,0 -0.17993,0.0324l0,0c-0.11058,0.03241 -0.21266,0.03565 -0.31903,0.0559l0,0c-0.04941,0 -0.0981,0 -0.13901,0.03241l0,0c-0.23332,0.03888 -0.46218,0.08182 -0.6912,0.12103l0,0l-0.07778,0l0,0c-0.11844,0.0324 -0.22505,0.04942 -0.33531,0.06562l0,0c-0.05752,0.0324 -0.11455,0.0324 -0.16786,0.04537l0,0c-0.11025,0.0324 -0.22084,0.04617 -0.32712,0.06562l0,0c-0.05752,0.0324 -0.10208,0.0324 -0.15547,0.03564l0,0c-0.38027,0.09163 -0.75657,0.18981 -1.13693,0.29448l0,0c-0.04051,0 -0.08174,0.03241 -0.13083,0.03889l0,0c-0.11448,0.0324 -0.22506,0.06562 -0.3435,0.10143l0,0c-0.04942,0.0324 -0.10637,0.0324 -0.15546,0.04536l0,0c-0.11447,0.03241 -0.22902,0.06562 -0.33944,0.10143l0,0c-0.04456,0 -0.08175,0.03241 -0.12266,0.03241l0,0c-0.26175,0.0981 -0.51937,0.19629 -0.7893,0.27811l0,0l0,0l0,0c-0.11448,0.03565 -0.23721,0.08175 -0.35986,0.12428l0,0c-0.04942,0.0324 -0.09422,0.03969 -0.15117,0.06238l0,0c-0.11455,0.03564 -0.22902,0.08182 -0.33539,0.12435l0,0c-0.04051,0.03241 -0.08175,0.03565 -0.11026,0.05266l0,0c-17.75718,7.00962 -27.81768,32.90523 -49.05108,73.82222l0,0c-1.88532,7.36956 -3.41076,15.18072 -4.47815,23.37215l0,0l1.13692,0c3.20218,0 4.10599,-0.03241 7.79076,-0.03241l0,0l0.18812,0l0.54801,0l0.18812,0l0.05331,0l0.18812,0l0.10633,0l0.07364,0l0.14722,0l0.45805,0l0.45804,0l0.38442,0l0.10208,0l0.67479,0l0,0c0.25355,-0.0324 0.5153,-0.0324 0.78112,-0.05265l0,0l0.0491,0l0,0c0.11058,0 0.22084,-0.03241 0.32717,-0.03241l0,0l0.07752,0l0,0c0.11844,0 0.25356,-0.0324 0.38443,-0.04618l0,0c16.59984,-35.65342 34.59422,-64.02341 52.51908,-81.0854l0,0c1.9712,-4.46583 3.9138,-7.87662 6.04046,-10.45704l0,0c-1.2433,-2.10203 -2.60512,-3.86057 -4.12646,-5.13685l0,0c0,0 -0.04132,0 -0.04456,-0.0324l0,0c-0.08603,-0.03565 -0.16745,-0.07859 -0.25348,-0.12104l0,0c-0.08612,-0.04617 -0.15968,-0.08182 -0.24936,-0.12759l0,0c-0.07777,-0.03241 -0.16778,-0.07534 -0.24539,-0.11779l0,0c-0.10629,-0.03241 -0.19232,-0.07859 -0.28622,-0.12112l0,0c-0.07777,-0.0324 -0.14728,-0.06562 -0.22513,-0.0981l0,0c-0.15968,-0.06238 -0.31895,-0.1276 -0.47028,-0.1963l0,0c-0.06967,-0.0324 -0.1348,-0.04941 -0.20059,-0.07534l0,0c-0.11025,-0.03969 -0.2372,-0.09162 -0.35167,-0.14072l0,0c-0.05752,-0.0324 -0.12274,-0.03888 -0.18811,-0.06238l0,0c-0.16754,-0.0559 -0.33126,-0.11447 -0.48673,-0.16688l0,0l-0.0405,0l0,0c-0.1882,-0.06238 -0.37218,-0.10791 -0.56442,-0.16033l0,0c-0.04456,-0.0324 -0.08182,-0.0324 -0.12662,-0.03888l0,0c-0.16786,-0.04618 -0.31506,-0.09163 -0.47441,-0.13416l0,0c-0.04051,0 -0.07777,-0.03241 -0.11026,-0.03241l0,0c-0.38441,-0.10142 -0.78112,-0.18317 -1.18189,-0.25843l0,0c-0.04132,0 -0.08175,-0.0324 -0.12266,-0.0324l0,0c-0.17174,-0.03241 -0.33944,-0.06238 -0.51119,-0.08182l0,0c-0.04131,-0.03241 -0.06562,-0.03241 -0.10207,-0.03241l0,0c-0.20448,-0.0324 -0.4049,-0.0559 -0.60533,-0.07858l0,0l-0.10629,0l0,0c-0.16356,-0.03241 -0.31473,-0.03565 -0.46623,-0.05266l0,0c-0.25778,0.03241 -0.503,0.04618 -0.74434,0.06886"/>
     <path stroke="null" id="svg_208" fill="url(#svg_153)" d="m2428.58988,1260.36281c-4.08555,13.08687 -7.39411,23.88351 -10.27314,32.76622l0,0c11.20964,-15.42611 22.25167,-34.83163 32.7663,-57.22613l0,0c-12.26499,3.85207 -18.80838,12.66965 -22.49316,24.45991"/>
     <path stroke="null" id="svg_209" fill="url(#svg_152)" d="m2418.67247,1329.28142c-0.57251,0.29115 -1.14503,0.5683 -1.70945,0.8179c21.80594,-9.72517 47.81602,-48.29861 60.26913,-96.32308l-2.52347,0c-28.61107,51.10805 -37.81274,85.32197 -56.03621,95.50518"/>
     <path stroke="null" id="svg_210" fill="#079AE1" d="m2404.43352,1324.98758c4.74394,-5.79086 8.60849,-15.63447 13.88444,-31.85823c-6.08567,8.35921 -12.21161,15.54488 -18.34216,21.40517c0,0.0324 0,0.0324 -0.0324,0.05266c1.33752,4.00786 2.80547,7.54519 4.4783,10.39975"/>
     <path stroke="null" id="svg_211" fill="#1969BC" d="m2404.43352,1324.98758c-1.61555,1.97128 -3.32476,3.47229 -5.22661,4.58467c-0.41713,0.24215 -0.83815,0.4702 -1.26777,0.67889c2.00823,1.08362 4.19994,1.80763 6.65366,2.09782l0,0c0.35961,0.03565 0.71558,0.06886 1.08791,0.09487l0.06562,0c0.16689,0 0.34358,0 0.52351,0.0324l0.0721,0l0.5359,0l0.57681,0l0.18001,0l0.40895,0c0.06562,0 0.13408,0 0.19953,-0.0324c0.1276,0 0.26176,0 0.39259,-0.03241l0.04618,0l0.1472,0c0.13416,0 0.28136,-0.0324 0.42531,-0.04618l0.03241,0c0.04294,0 0.0883,-0.0324 0.13084,-0.0324c0.15052,-0.03241 0.3076,-0.04618 0.45415,-0.06886l0.13416,0c0.1668,-0.03241 0.33928,-0.05266 0.51103,-0.08507l0.0324,0l0.04942,0c0.34357,-0.06562 0.67889,-0.13083 1.01817,-0.21589c-2.81365,-1.03065 -5.16926,-3.45989 -7.19773,-6.9197"/>
     <path stroke="null" id="svg_212" fill="#1E5CB3" d="m2364.23172,1332.47623c2.04087,0 4.10208,-0.19953 6.17138,-0.59706c1.91401,-0.34747 3.8319,-0.87948 5.75401,-1.55018c1.59919,0.78129 3.27591,1.36207 5.05081,1.72192c1.37811,0.28136 2.80944,0.42532 4.31053,0.42532l-21.28673,0l0,0z"/>
     <path stroke="null" id="svg_213" fill="#1E5CB3" d="m2385.51877,1332.47623c5.03842,0 9.02991,-0.59706 12.42037,-2.22477c2.0079,1.08363 4.19994,1.80764 6.65366,2.09815l0,0c0.35993,0.03564 0.7159,0.06886 1.08791,0.09486l0.06562,0c0.16689,0 0.34358,0 0.52351,0.03241l0.07534,0l0.5359,0l-21.37673,0l0.01442,-0.00065z"/>
     <path stroke="null" id="svg_214" fill="#1D60B5" d="m2406.8938,1332.47623l0.58078,0l0.17993,0l0.40506,0c0.06886,0 0.13408,0 0.19953,-0.0324c0.1276,0 0.26176,0 0.39689,-0.03241l0.04293,0l0.15052,0c0.13408,0 0.28136,-0.0324 0.42135,-0.04537l0.03565,0c0.04293,0 0.08506,-0.0324 0.12759,-0.0324c0.15052,-0.03241 0.30761,-0.04537 0.45383,-0.06886c0.04942,0 0.08831,0 0.14064,-0.03241c0.16689,-0.0324 0.33961,-0.04942 0.51143,-0.08174l0.03241,0l0.04942,0c0.34357,-0.06562 0.67888,-0.13092 1.01816,-0.21598l0,0c0.98544,0.36383 2.01212,0.54805 3.12021,0.54805l-7.86026,0.03241l-0.00607,-0.03889z"/>
     <path stroke="null" id="svg_215" fill="#175FAB" d="m2399.95652,1314.58783l0,-0.03241c-2.2451,2.14692 -4.48624,4.11423 -6.7234,5.89302c-1.16966,0.92849 -2.33503,1.80764 -3.51279,2.63802c0.98544,1.17776 1.98756,2.28196 3.04267,3.28806c1.60316,1.55374 3.3165,2.86274 5.18562,3.87273c0.42532,-0.20942 0.85064,-0.43779 1.26356,-0.67889c1.90574,-1.11238 3.61527,-2.61314 5.23082,-4.58434c-1.67283,-2.85456 -3.14086,-6.39231 -4.4783,-10.40008"/>
     <path stroke="null" id="svg_216" fill="url(#svg_151)" d="m2466.7176,1233.77624l-10.60853,0l-1.05519,0l0,0l-0.99783,0l0,0l-0.03889,0c-0.68707,0.03241 -1.35348,0.0559 -2.01211,0.09819l0,0c-0.31077,0.66681 -0.62979,1.33355 -0.93667,2.00425l0,0c-10.51431,22.39449 -21.55633,41.80002 -32.76597,57.22613l0,0c-5.27158,16.22343 -9.14034,26.06736 -13.88436,31.85831l0,0c2.02848,3.4598 4.38821,5.89294 7.19368,6.92358l0,0c0.08182,-0.0324 0.1472,-0.0324 0.22084,-0.04942l0,0l0.04537,0l0,0c0.04942,0 0.10207,-0.0324 0.15546,-0.0324l0,0c0.11447,-0.03241 0.23721,-0.05266 0.35168,-0.08831l0,0c0.07372,-0.0324 0.1348,-0.03564 0.20877,-0.05913l0,0c0.10629,-0.03241 0.21654,-0.0559 0.31473,-0.08183l0,0c0.06562,-0.0324 0.13084,-0.04293 0.1963,-0.0559l0,0c0.16356,-0.05265 0.31076,-0.09162 0.46622,-0.14071l0,0c0.07372,-0.03241 0.1515,-0.05914 0.23324,-0.07859l0,0c0.09,-0.0324 0.17993,-0.0559 0.26175,-0.09486l0,0c0.09422,-0.03241 0.18811,-0.04942 0.26993,-0.08507l0,0c0.07373,-0.0324 0.15118,-0.05265 0.22085,-0.08182l0,0c0.18381,-0.06562 0.36399,-0.12103 0.54797,-0.19305l0,0c0.04941,0 0.09818,-0.04537 0.15149,-0.0559l0,0c0.11026,-0.04618 0.22481,-0.08182 0.33539,-0.13092l0,0c0.04051,-0.0324 0.08993,-0.03564 0.14291,-0.05266l0,0c0.38448,-0.16032 0.78112,-0.32388 1.17784,-0.50284l0,0l0.04132,0l0,0c0.56433,-0.24863 1.13693,-0.52772 1.70539,-0.8179l0,0c18.22753,-10.18322 27.42935,-44.39713 56.04043,-95.50518l0,0l-7.99117,0l0.00916,-0.00397z"/>
     <path stroke="null" id="svg_217" fill="#7DCBEC" d="m2308.49445,1236.02199c0.04536,0 0.08603,0 0.13083,0.03241c0.11026,0 0.22084,0 0.33126,0.03564l0.11058,0c0.20027,0.03241 0.40077,0.04942 0.60525,0.07859c0.03727,0 0.06967,0 0.10208,0.0324c0.16753,0.03241 0.33944,0.05914 0.51119,0.08506c0.03726,0 0.08611,0.03241 0.12694,0.03241c0.39267,0.07858 0.79344,0.16032 1.17785,0.26175c0.03645,0 0.07372,0.03241 0.10637,0.03241c0.16356,0.03888 0.31076,0.0883 0.47432,0.13407c0.04942,0 0.08572,0.03241 0.13092,0.0397c0.19232,0.04942 0.37217,0.09819 0.56028,0.16032c0.00811,0 0.01945,0 0.04132,0.03241c0.15927,0.0486 0.32292,0.11123 0.49069,0.1668c0.06562,0.03241 0.12663,0.04618 0.18812,0.06238c0.11455,0.04942 0.24149,0.09811 0.35175,0.14396c0.06562,0 0.13084,0.04537 0.20018,0.06886c0.15117,0.06886 0.31085,0.13084 0.46623,0.1963c0.08183,0.0324 0.15117,0.06886 0.22903,0.0981c0.09,0.04618 0.18389,0.08839 0.28208,0.12112c0.08174,0.03888 0.17175,0.08174 0.24928,0.11771c0.08603,0.04617 0.16753,0.08182 0.2496,0.12759c2.02847,0.99792 3.89744,2.32717 5.62738,3.93851c0.63797,-0.6707 1.30455,-1.27206 1.99575,-1.81184c-3.78297,-2.68282 -8.06886,-4.21234 -13.01323,-4.21234c-0.5726,0 -1.14511,0.03241 -1.72581,0.07534"/>
     <path stroke="null" id="svg_218" fill="#5EC5ED" d="m2321.23855,1241.97286c1.05924,0.98544 2.07343,2.08575 3.03449,3.27178c0.92832,-0.64616 1.84854,-1.26785 2.77282,-1.84855c-1.21057,-1.21057 -2.48652,-2.29841 -3.8157,-3.23508c-0.69112,0.5359 -1.35364,1.14114 -1.99161,1.81185"/>
     <path stroke="null" id="svg_219" fill="url(#svg_168)" d="m2308.49347,1236.02132c0.58073,-0.04908 1.15328,-0.06953 1.72583,-0.06953c4.94437,0 9.23031,1.52953 13.01322,4.20824c3.99149,-3.14902 8.81726,-4.24913 15.52018,-4.24913l-32.45945,0c0.7484,0 1.48045,0.04498 2.20022,0.11042"/>
     <path stroke="null" id="svg_220" fill="url(#svg_167)" d="m2338.7527,1235.9109c-6.70292,0 -11.52869,1.10011 -15.52018,4.24913c1.32505,0.93653 2.60101,2.02437 3.81155,3.2349c5.55781,-3.53345 11.06246,-5.87272 16.48941,-6.89513c2.06936,-0.38851 4.13463,-0.5889 6.17127,-0.5889l-10.95205,0l0,0z"/>
     <path stroke="null" id="svg_221" fill="url(#svg_148)" d="m2418.31674,1293.13721c2.88316,-8.89089 6.18346,-19.68324 10.27719,-32.7744c3.68891,-11.79447 10.22007,-20.61172 22.48482,-24.45991c0.32397,-0.65863 0.62987,-1.33751 0.94493,-2.00425c-19.99441,1.19842 -29.33922,11.36916 -34.04233,26.43151c-8.22424,26.29631 -13.20547,43.34194 -18.00255,54.20404c6.12626,-5.85641 12.25252,-13.04596 18.33794,-21.39699"/>
     <path stroke="null" id="svg_222" fill="#000000" d="m2447.65005,1325.47115l-2.26568,0l0,7.04235l-0.92427,0l0,-7.04235l-2.27379,0l0,-0.83816l5.46374,0l0,0.83816l0,0z"/>
     <path stroke="null" id="svg_223" fill="#000000" d="m2456.9273,1332.5122l-0.91998,0l0,-5.29199c0,-0.41713 0.0324,-0.92816 0.07534,-1.52952l0,0c-0.09495,0.35994 -0.17345,0.60954 -0.24539,0.76889l-2.68281,6.05262l-0.44987,0l-2.691,-6.00749c-0.07858,-0.16689 -0.157,-0.43771 -0.24206,-0.81402l-0.03241,0c0.03241,0.31741 0.04294,0.83038 0.04294,1.542l0,5.27951l-0.88336,0l0,-7.88051l1.21867,0l2.41685,5.50036c0.18317,0.41324 0.29772,0.73219 0.35597,0.94485l0.03565,0c0.16032,-0.4335 0.29116,-0.75674 0.38051,-0.9694l2.46587,-5.47581l1.16148,0l0,7.88051l-0.0064,0z"/>
    </g>
   </g>
  </g>
 </g>
</svg>